<mxfile host="app.diagrams.net" modified="2023-06-21T08:36:44.653Z" agent="Mozilla/5.0 (Windows NT 10.0; Win64; x64) AppleWebKit/537.36 (KHTML, like Gecko) Chrome/114.0.0.0 Safari/537.36" etag="V3ddOHJYc9b9Ja37O6-e" version="21.5.0" type="device">
  <diagram name="Page-1" id="74e2e168-ea6b-b213-b513-2b3c1d86103e">
    <mxGraphModel dx="1036" dy="585" grid="1" gridSize="10" guides="1" tooltips="1" connect="1" arrows="1" fold="1" page="1" pageScale="1" pageWidth="1100" pageHeight="850" background="none" math="0" shadow="0">
      <root>
        <mxCell id="0" />
        <mxCell id="1" parent="0" />
        <mxCell id="77e6c97f196da883-1" value="Pool" style="swimlane;html=1;childLayout=stackLayout;startSize=20;rounded=0;shadow=0;labelBackgroundColor=none;strokeWidth=1;fontFamily=Verdana;fontSize=8;align=center;fillColor=#ffe6cc;strokeColor=#d79b00;" parent="1" vertex="1">
          <mxGeometry x="70" width="960" height="930" as="geometry" />
        </mxCell>
        <mxCell id="77e6c97f196da883-2" value="Lane 1" style="swimlane;html=1;startSize=20;" parent="77e6c97f196da883-1" vertex="1">
          <mxGeometry y="20" width="160" height="910" as="geometry" />
        </mxCell>
        <mxCell id="77e6c97f196da883-8" value="" style="rounded=1;whiteSpace=wrap;html=1;shadow=0;labelBackgroundColor=none;strokeWidth=1;fontFamily=Verdana;fontSize=8;align=center;" parent="77e6c97f196da883-2" vertex="1">
          <mxGeometry x="20" y="65" width="100" height="60" as="geometry" />
        </mxCell>
        <mxCell id="77e6c97f196da883-9" value="" style="rounded=1;whiteSpace=wrap;html=1;shadow=0;labelBackgroundColor=none;strokeWidth=1;fontFamily=Verdana;fontSize=8;align=center;" parent="77e6c97f196da883-2" vertex="1">
          <mxGeometry x="20" y="155" width="100" height="60" as="geometry" />
        </mxCell>
        <mxCell id="77e6c97f196da883-10" value="" style="rounded=1;whiteSpace=wrap;html=1;shadow=0;labelBackgroundColor=none;strokeWidth=1;fontFamily=Verdana;fontSize=8;align=center;" parent="77e6c97f196da883-2" vertex="1">
          <mxGeometry x="30" y="560" width="100" height="60" as="geometry" />
        </mxCell>
        <mxCell id="77e6c97f196da883-26" style="edgeStyle=orthogonalEdgeStyle;rounded=1;html=1;labelBackgroundColor=none;startArrow=none;startFill=0;startSize=5;endArrow=classicThin;endFill=1;endSize=5;jettySize=auto;orthogonalLoop=1;strokeWidth=1;fontFamily=Verdana;fontSize=8" parent="77e6c97f196da883-1" source="77e6c97f196da883-8" target="77e6c97f196da883-11" edge="1">
          <mxGeometry relative="1" as="geometry" />
        </mxCell>
        <mxCell id="77e6c97f196da883-27" style="edgeStyle=orthogonalEdgeStyle;rounded=1;html=1;labelBackgroundColor=none;startArrow=none;startFill=0;startSize=5;endArrow=classicThin;endFill=1;endSize=5;jettySize=auto;orthogonalLoop=1;strokeWidth=1;fontFamily=Verdana;fontSize=8" parent="77e6c97f196da883-1" source="77e6c97f196da883-11" target="77e6c97f196da883-9" edge="1">
          <mxGeometry relative="1" as="geometry">
            <Array as="points">
              <mxPoint x="240" y="155" />
              <mxPoint x="70" y="155" />
            </Array>
          </mxGeometry>
        </mxCell>
        <mxCell id="77e6c97f196da883-28" style="edgeStyle=orthogonalEdgeStyle;rounded=1;html=1;labelBackgroundColor=none;startArrow=none;startFill=0;startSize=5;endArrow=classicThin;endFill=1;endSize=5;jettySize=auto;orthogonalLoop=1;strokeWidth=1;fontFamily=Verdana;fontSize=8" parent="77e6c97f196da883-1" source="77e6c97f196da883-9" target="77e6c97f196da883-12" edge="1">
          <mxGeometry relative="1" as="geometry" />
        </mxCell>
        <mxCell id="77e6c97f196da883-30" style="edgeStyle=orthogonalEdgeStyle;rounded=1;html=1;labelBackgroundColor=none;startArrow=none;startFill=0;startSize=5;endArrow=classicThin;endFill=1;endSize=5;jettySize=auto;orthogonalLoop=1;strokeWidth=1;fontFamily=Verdana;fontSize=8" parent="77e6c97f196da883-1" source="77e6c97f196da883-13" target="77e6c97f196da883-9" edge="1">
          <mxGeometry relative="1" as="geometry" />
        </mxCell>
        <mxCell id="77e6c97f196da883-31" style="edgeStyle=orthogonalEdgeStyle;rounded=1;html=1;labelBackgroundColor=none;startArrow=none;startFill=0;startSize=5;endArrow=classicThin;endFill=1;endSize=5;jettySize=auto;orthogonalLoop=1;strokeWidth=1;fontFamily=Verdana;fontSize=8" parent="77e6c97f196da883-1" source="77e6c97f196da883-16" target="77e6c97f196da883-9" edge="1">
          <mxGeometry relative="1" as="geometry" />
        </mxCell>
        <mxCell id="77e6c97f196da883-32" style="edgeStyle=orthogonalEdgeStyle;rounded=1;html=1;labelBackgroundColor=none;startArrow=none;startFill=0;startSize=5;endArrow=classicThin;endFill=1;endSize=5;jettySize=auto;orthogonalLoop=1;strokeWidth=1;fontFamily=Verdana;fontSize=8" parent="77e6c97f196da883-1" source="77e6c97f196da883-20" target="77e6c97f196da883-9" edge="1">
          <mxGeometry relative="1" as="geometry">
            <Array as="points">
              <mxPoint x="20" y="690" />
              <mxPoint x="20" y="370" />
              <mxPoint x="70" y="370" />
            </Array>
          </mxGeometry>
        </mxCell>
        <mxCell id="77e6c97f196da883-33" style="edgeStyle=orthogonalEdgeStyle;rounded=1;html=1;labelBackgroundColor=none;startArrow=none;startFill=0;startSize=5;endArrow=classicThin;endFill=1;endSize=5;jettySize=auto;orthogonalLoop=1;strokeWidth=1;fontFamily=Verdana;fontSize=8" parent="77e6c97f196da883-1" source="77e6c97f196da883-13" target="77e6c97f196da883-15" edge="1">
          <mxGeometry relative="1" as="geometry" />
        </mxCell>
        <mxCell id="77e6c97f196da883-39" style="edgeStyle=orthogonalEdgeStyle;rounded=1;html=1;labelBackgroundColor=none;startArrow=none;startFill=0;startSize=5;endArrow=classicThin;endFill=1;endSize=5;jettySize=auto;orthogonalLoop=1;strokeWidth=1;fontFamily=Verdana;fontSize=8" parent="77e6c97f196da883-1" source="77e6c97f196da883-20" target="77e6c97f196da883-23" edge="1">
          <mxGeometry relative="1" as="geometry" />
        </mxCell>
        <mxCell id="77e6c97f196da883-40" style="edgeStyle=orthogonalEdgeStyle;rounded=1;html=1;labelBackgroundColor=none;startArrow=none;startFill=0;startSize=5;endArrow=classicThin;endFill=1;endSize=5;jettySize=auto;orthogonalLoop=1;strokeWidth=1;fontFamily=Verdana;fontSize=8" parent="77e6c97f196da883-1" source="77e6c97f196da883-23" target="77e6c97f196da883-24" edge="1">
          <mxGeometry relative="1" as="geometry" />
        </mxCell>
        <mxCell id="107ba76e4e335f99-1" style="edgeStyle=orthogonalEdgeStyle;rounded=1;html=1;labelBackgroundColor=none;startArrow=none;startFill=0;startSize=5;endArrow=classicThin;endFill=1;endSize=5;jettySize=auto;orthogonalLoop=1;strokeWidth=1;fontFamily=Verdana;fontSize=8" parent="77e6c97f196da883-1" source="77e6c97f196da883-17" target="77e6c97f196da883-18" edge="1">
          <mxGeometry relative="1" as="geometry" />
        </mxCell>
        <mxCell id="107ba76e4e335f99-2" style="edgeStyle=orthogonalEdgeStyle;rounded=1;html=1;labelBackgroundColor=none;startArrow=none;startFill=0;startSize=5;endArrow=classicThin;endFill=1;endSize=5;jettySize=auto;orthogonalLoop=1;strokeWidth=1;fontFamily=Verdana;fontSize=8" parent="77e6c97f196da883-1" source="77e6c97f196da883-22" target="77e6c97f196da883-14" edge="1">
          <mxGeometry relative="1" as="geometry">
            <Array as="points">
              <mxPoint x="660" y="610" />
              <mxPoint x="660" y="550" />
              <mxPoint x="400" y="550" />
            </Array>
          </mxGeometry>
        </mxCell>
        <mxCell id="107ba76e4e335f99-3" style="edgeStyle=orthogonalEdgeStyle;rounded=1;html=1;labelBackgroundColor=none;startArrow=none;startFill=0;startSize=5;endArrow=classicThin;endFill=1;endSize=5;jettySize=auto;orthogonalLoop=1;strokeColor=#000000;strokeWidth=1;fontFamily=Verdana;fontSize=8;fontColor=#000000;" parent="77e6c97f196da883-1" source="77e6c97f196da883-22" target="77e6c97f196da883-19" edge="1">
          <mxGeometry relative="1" as="geometry" />
        </mxCell>
        <mxCell id="107ba76e4e335f99-4" style="edgeStyle=orthogonalEdgeStyle;rounded=1;html=1;labelBackgroundColor=none;startArrow=none;startFill=0;startSize=5;endArrow=classicThin;endFill=1;endSize=5;jettySize=auto;orthogonalLoop=1;strokeWidth=1;fontFamily=Verdana;fontSize=8" parent="77e6c97f196da883-1" source="77e6c97f196da883-22" target="77e6c97f196da883-10" edge="1">
          <mxGeometry relative="1" as="geometry">
            <Array as="points">
              <mxPoint x="660" y="610" />
              <mxPoint x="660" y="550" />
              <mxPoint x="80" y="550" />
            </Array>
          </mxGeometry>
        </mxCell>
        <mxCell id="107ba76e4e335f99-5" style="edgeStyle=orthogonalEdgeStyle;rounded=1;html=1;labelBackgroundColor=none;startArrow=none;startFill=0;startSize=5;endArrow=classicThin;endFill=1;endSize=5;jettySize=auto;orthogonalLoop=1;strokeWidth=1;fontFamily=Verdana;fontSize=8" parent="77e6c97f196da883-1" source="77e6c97f196da883-10" target="77e6c97f196da883-19" edge="1">
          <mxGeometry relative="1" as="geometry">
            <Array as="points">
              <mxPoint x="80" y="650" />
              <mxPoint x="490" y="650" />
              <mxPoint x="490" y="610" />
            </Array>
          </mxGeometry>
        </mxCell>
        <mxCell id="107ba76e4e335f99-6" style="edgeStyle=orthogonalEdgeStyle;rounded=1;html=1;labelBackgroundColor=none;startArrow=none;startFill=0;startSize=5;endArrow=classicThin;endFill=1;endSize=5;jettySize=auto;orthogonalLoop=1;strokeWidth=1;fontFamily=Verdana;fontSize=8" parent="77e6c97f196da883-1" source="77e6c97f196da883-14" target="77e6c97f196da883-19" edge="1">
          <mxGeometry relative="1" as="geometry" />
        </mxCell>
        <mxCell id="77e6c97f196da883-3" value="Lane 2" style="swimlane;html=1;startSize=20;" parent="77e6c97f196da883-1" vertex="1">
          <mxGeometry x="160" y="20" width="160" height="910" as="geometry" />
        </mxCell>
        <mxCell id="77e6c97f196da883-11" value="" style="rounded=1;whiteSpace=wrap;html=1;shadow=0;labelBackgroundColor=none;strokeWidth=1;fontFamily=Verdana;fontSize=8;align=center;" parent="77e6c97f196da883-3" vertex="1">
          <mxGeometry x="30" y="65" width="100" height="60" as="geometry" />
        </mxCell>
        <mxCell id="77e6c97f196da883-4" value="Lane 3" style="swimlane;html=1;startSize=20;" parent="77e6c97f196da883-1" vertex="1">
          <mxGeometry x="320" y="20" width="160" height="910" as="geometry" />
        </mxCell>
        <mxCell id="77e6c97f196da883-12" value="" style="rounded=1;whiteSpace=wrap;html=1;shadow=0;labelBackgroundColor=none;strokeWidth=1;fontFamily=Verdana;fontSize=8;align=center;" parent="77e6c97f196da883-4" vertex="1">
          <mxGeometry x="30" y="155" width="100" height="60" as="geometry" />
        </mxCell>
        <mxCell id="77e6c97f196da883-13" value="" style="rhombus;whiteSpace=wrap;html=1;rounded=0;shadow=0;labelBackgroundColor=none;strokeWidth=1;fontFamily=Verdana;fontSize=8;align=center;" parent="77e6c97f196da883-4" vertex="1">
          <mxGeometry x="40" y="240" width="80" height="60" as="geometry" />
        </mxCell>
        <mxCell id="77e6c97f196da883-14" value="" style="rounded=1;whiteSpace=wrap;html=1;shadow=0;labelBackgroundColor=none;strokeWidth=1;fontFamily=Verdana;fontSize=8;align=center;" parent="77e6c97f196da883-4" vertex="1">
          <mxGeometry x="30" y="560" width="100" height="60" as="geometry" />
        </mxCell>
        <mxCell id="77e6c97f196da883-29" style="edgeStyle=orthogonalEdgeStyle;rounded=1;html=1;labelBackgroundColor=none;startArrow=none;startFill=0;startSize=5;endArrow=classicThin;endFill=1;endSize=5;jettySize=auto;orthogonalLoop=1;strokeWidth=1;fontFamily=Verdana;fontSize=8" parent="77e6c97f196da883-4" source="77e6c97f196da883-12" target="77e6c97f196da883-13" edge="1">
          <mxGeometry relative="1" as="geometry" />
        </mxCell>
        <mxCell id="77e6c97f196da883-5" value="Lane 4" style="swimlane;html=1;startSize=20;" parent="77e6c97f196da883-1" vertex="1">
          <mxGeometry x="480" y="20" width="160" height="910" as="geometry" />
        </mxCell>
        <mxCell id="77e6c97f196da883-15" value="" style="rounded=1;whiteSpace=wrap;html=1;shadow=0;labelBackgroundColor=none;strokeWidth=1;fontFamily=Verdana;fontSize=8;align=center;" parent="77e6c97f196da883-5" vertex="1">
          <mxGeometry x="30" y="240" width="100" height="60" as="geometry" />
        </mxCell>
        <mxCell id="77e6c97f196da883-16" value="" style="rhombus;whiteSpace=wrap;html=1;rounded=0;shadow=0;labelBackgroundColor=none;strokeWidth=1;fontFamily=Verdana;fontSize=8;align=center;" parent="77e6c97f196da883-5" vertex="1">
          <mxGeometry x="40" y="320" width="80" height="60" as="geometry" />
        </mxCell>
        <mxCell id="77e6c97f196da883-17" value="" style="rounded=1;whiteSpace=wrap;html=1;shadow=0;labelBackgroundColor=none;strokeWidth=1;fontFamily=Verdana;fontSize=8;align=center;" parent="77e6c97f196da883-5" vertex="1">
          <mxGeometry x="30" y="400" width="100" height="60" as="geometry" />
        </mxCell>
        <mxCell id="77e6c97f196da883-19" value="" style="rounded=1;whiteSpace=wrap;html=1;shadow=0;labelBackgroundColor=none;strokeWidth=1;fontFamily=Verdana;fontSize=8;align=center;" parent="77e6c97f196da883-5" vertex="1">
          <mxGeometry x="30" y="560" width="100" height="60" as="geometry" />
        </mxCell>
        <mxCell id="77e6c97f196da883-20" value="" style="rhombus;whiteSpace=wrap;html=1;rounded=0;shadow=0;labelBackgroundColor=none;strokeWidth=1;fontFamily=Verdana;fontSize=8;align=center;" parent="77e6c97f196da883-5" vertex="1">
          <mxGeometry x="40" y="640" width="80" height="60" as="geometry" />
        </mxCell>
        <mxCell id="77e6c97f196da883-34" style="edgeStyle=orthogonalEdgeStyle;rounded=1;html=1;labelBackgroundColor=none;startArrow=none;startFill=0;startSize=5;endArrow=classicThin;endFill=1;endSize=5;jettySize=auto;orthogonalLoop=1;strokeColor=#000000;strokeWidth=1;fontFamily=Verdana;fontSize=8;fontColor=#000000;" parent="77e6c97f196da883-5" source="77e6c97f196da883-15" target="77e6c97f196da883-16" edge="1">
          <mxGeometry relative="1" as="geometry" />
        </mxCell>
        <mxCell id="77e6c97f196da883-35" style="edgeStyle=orthogonalEdgeStyle;rounded=1;html=1;labelBackgroundColor=none;startArrow=none;startFill=0;startSize=5;endArrow=classicThin;endFill=1;endSize=5;jettySize=auto;orthogonalLoop=1;strokeWidth=1;fontFamily=Verdana;fontSize=8" parent="77e6c97f196da883-5" source="77e6c97f196da883-16" target="77e6c97f196da883-17" edge="1">
          <mxGeometry relative="1" as="geometry" />
        </mxCell>
        <mxCell id="77e6c97f196da883-36" style="edgeStyle=orthogonalEdgeStyle;rounded=1;html=1;labelBackgroundColor=none;startArrow=none;startFill=0;startSize=5;endArrow=classicThin;endFill=1;endSize=5;jettySize=auto;orthogonalLoop=1;strokeWidth=1;fontFamily=Verdana;fontSize=8" parent="77e6c97f196da883-5" source="77e6c97f196da883-19" target="77e6c97f196da883-20" edge="1">
          <mxGeometry relative="1" as="geometry" />
        </mxCell>
        <mxCell id="77e6c97f196da883-6" value="Lane 5" style="swimlane;html=1;startSize=20;fillColor=#f8cecc;strokeColor=#b85450;" parent="77e6c97f196da883-1" vertex="1">
          <mxGeometry x="640" y="20" width="160" height="910" as="geometry" />
        </mxCell>
        <mxCell id="77e6c97f196da883-18" value="" style="rounded=1;whiteSpace=wrap;html=1;shadow=0;labelBackgroundColor=none;strokeWidth=1;fontFamily=Verdana;fontSize=8;align=center;" parent="77e6c97f196da883-6" vertex="1">
          <mxGeometry x="30" y="400" width="100" height="60" as="geometry" />
        </mxCell>
        <mxCell id="77e6c97f196da883-21" value="" style="rounded=1;whiteSpace=wrap;html=1;shadow=0;labelBackgroundColor=none;strokeWidth=1;fontFamily=Verdana;fontSize=8;align=center;" parent="77e6c97f196da883-6" vertex="1">
          <mxGeometry x="30" y="480" width="100" height="60" as="geometry" />
        </mxCell>
        <mxCell id="77e6c97f196da883-22" value="" style="rounded=1;whiteSpace=wrap;html=1;shadow=0;labelBackgroundColor=none;strokeWidth=1;fontFamily=Verdana;fontSize=8;align=center;" parent="77e6c97f196da883-6" vertex="1">
          <mxGeometry x="30" y="560" width="100" height="60" as="geometry" />
        </mxCell>
        <mxCell id="77e6c97f196da883-23" value="" style="rounded=1;whiteSpace=wrap;html=1;shadow=0;labelBackgroundColor=none;strokeWidth=1;fontFamily=Verdana;fontSize=8;align=center;" parent="77e6c97f196da883-6" vertex="1">
          <mxGeometry x="30" y="640" width="100" height="60" as="geometry" />
        </mxCell>
        <mxCell id="77e6c97f196da883-37" style="edgeStyle=orthogonalEdgeStyle;rounded=1;html=1;labelBackgroundColor=none;startArrow=none;startFill=0;startSize=5;endArrow=classicThin;endFill=1;endSize=5;jettySize=auto;orthogonalLoop=1;strokeWidth=1;fontFamily=Verdana;fontSize=8" parent="77e6c97f196da883-6" source="77e6c97f196da883-18" target="77e6c97f196da883-21" edge="1">
          <mxGeometry relative="1" as="geometry" />
        </mxCell>
        <mxCell id="77e6c97f196da883-38" style="edgeStyle=orthogonalEdgeStyle;rounded=1;html=1;labelBackgroundColor=none;startArrow=none;startFill=0;startSize=5;endArrow=classicThin;endFill=1;endSize=5;jettySize=auto;orthogonalLoop=1;strokeWidth=1;fontFamily=Verdana;fontSize=8" parent="77e6c97f196da883-6" source="77e6c97f196da883-21" target="77e6c97f196da883-22" edge="1">
          <mxGeometry relative="1" as="geometry" />
        </mxCell>
        <mxCell id="77e6c97f196da883-7" value="Lane 6" style="swimlane;html=1;startSize=20;" parent="77e6c97f196da883-1" vertex="1">
          <mxGeometry x="800" y="20" width="160" height="910" as="geometry" />
        </mxCell>
        <mxCell id="77e6c97f196da883-24" value="" style="rounded=1;whiteSpace=wrap;html=1;shadow=0;labelBackgroundColor=none;strokeWidth=1;fontFamily=Verdana;fontSize=8;align=center;" parent="77e6c97f196da883-7" vertex="1">
          <mxGeometry x="30" y="640" width="100" height="60" as="geometry" />
        </mxCell>
        <mxCell id="kNivtfIKxEV_QdEDt8PE-1" value="Table" style="shape=table;startSize=30;container=1;collapsible=0;childLayout=tableLayout;strokeColor=default;fontSize=16;" vertex="1" parent="1">
          <mxGeometry x="320" y="1030" width="180" height="150" as="geometry" />
        </mxCell>
        <mxCell id="kNivtfIKxEV_QdEDt8PE-2" value="" style="shape=tableRow;horizontal=0;startSize=0;swimlaneHead=0;swimlaneBody=0;strokeColor=inherit;top=0;left=0;bottom=0;right=0;collapsible=0;dropTarget=0;fillColor=none;points=[[0,0.5],[1,0.5]];portConstraint=eastwest;fontSize=16;" vertex="1" parent="kNivtfIKxEV_QdEDt8PE-1">
          <mxGeometry y="30" width="180" height="40" as="geometry" />
        </mxCell>
        <mxCell id="kNivtfIKxEV_QdEDt8PE-3" value="" style="shape=partialRectangle;html=1;whiteSpace=wrap;connectable=0;strokeColor=inherit;overflow=hidden;fillColor=none;top=0;left=0;bottom=0;right=0;pointerEvents=1;fontSize=16;" vertex="1" parent="kNivtfIKxEV_QdEDt8PE-2">
          <mxGeometry width="60" height="40" as="geometry">
            <mxRectangle width="60" height="40" as="alternateBounds" />
          </mxGeometry>
        </mxCell>
        <mxCell id="kNivtfIKxEV_QdEDt8PE-4" value="" style="shape=partialRectangle;html=1;whiteSpace=wrap;connectable=0;strokeColor=inherit;overflow=hidden;fillColor=none;top=0;left=0;bottom=0;right=0;pointerEvents=1;fontSize=16;" vertex="1" parent="kNivtfIKxEV_QdEDt8PE-2">
          <mxGeometry x="60" width="60" height="40" as="geometry">
            <mxRectangle width="60" height="40" as="alternateBounds" />
          </mxGeometry>
        </mxCell>
        <mxCell id="kNivtfIKxEV_QdEDt8PE-5" value="" style="shape=partialRectangle;html=1;whiteSpace=wrap;connectable=0;strokeColor=inherit;overflow=hidden;fillColor=none;top=0;left=0;bottom=0;right=0;pointerEvents=1;fontSize=16;" vertex="1" parent="kNivtfIKxEV_QdEDt8PE-2">
          <mxGeometry x="120" width="60" height="40" as="geometry">
            <mxRectangle width="60" height="40" as="alternateBounds" />
          </mxGeometry>
        </mxCell>
        <mxCell id="kNivtfIKxEV_QdEDt8PE-6" value="" style="shape=tableRow;horizontal=0;startSize=0;swimlaneHead=0;swimlaneBody=0;strokeColor=inherit;top=0;left=0;bottom=0;right=0;collapsible=0;dropTarget=0;fillColor=none;points=[[0,0.5],[1,0.5]];portConstraint=eastwest;fontSize=16;" vertex="1" parent="kNivtfIKxEV_QdEDt8PE-1">
          <mxGeometry y="70" width="180" height="40" as="geometry" />
        </mxCell>
        <mxCell id="kNivtfIKxEV_QdEDt8PE-7" value="" style="shape=partialRectangle;html=1;whiteSpace=wrap;connectable=0;strokeColor=inherit;overflow=hidden;fillColor=none;top=0;left=0;bottom=0;right=0;pointerEvents=1;fontSize=16;" vertex="1" parent="kNivtfIKxEV_QdEDt8PE-6">
          <mxGeometry width="60" height="40" as="geometry">
            <mxRectangle width="60" height="40" as="alternateBounds" />
          </mxGeometry>
        </mxCell>
        <mxCell id="kNivtfIKxEV_QdEDt8PE-8" value="" style="shape=partialRectangle;html=1;whiteSpace=wrap;connectable=0;strokeColor=inherit;overflow=hidden;fillColor=none;top=0;left=0;bottom=0;right=0;pointerEvents=1;fontSize=16;" vertex="1" parent="kNivtfIKxEV_QdEDt8PE-6">
          <mxGeometry x="60" width="60" height="40" as="geometry">
            <mxRectangle width="60" height="40" as="alternateBounds" />
          </mxGeometry>
        </mxCell>
        <mxCell id="kNivtfIKxEV_QdEDt8PE-9" value="" style="shape=partialRectangle;html=1;whiteSpace=wrap;connectable=0;strokeColor=inherit;overflow=hidden;fillColor=none;top=0;left=0;bottom=0;right=0;pointerEvents=1;fontSize=16;" vertex="1" parent="kNivtfIKxEV_QdEDt8PE-6">
          <mxGeometry x="120" width="60" height="40" as="geometry">
            <mxRectangle width="60" height="40" as="alternateBounds" />
          </mxGeometry>
        </mxCell>
        <mxCell id="kNivtfIKxEV_QdEDt8PE-10" value="" style="shape=tableRow;horizontal=0;startSize=0;swimlaneHead=0;swimlaneBody=0;strokeColor=inherit;top=0;left=0;bottom=0;right=0;collapsible=0;dropTarget=0;fillColor=none;points=[[0,0.5],[1,0.5]];portConstraint=eastwest;fontSize=16;" vertex="1" parent="kNivtfIKxEV_QdEDt8PE-1">
          <mxGeometry y="110" width="180" height="40" as="geometry" />
        </mxCell>
        <mxCell id="kNivtfIKxEV_QdEDt8PE-11" value="" style="shape=partialRectangle;html=1;whiteSpace=wrap;connectable=0;strokeColor=inherit;overflow=hidden;fillColor=none;top=0;left=0;bottom=0;right=0;pointerEvents=1;fontSize=16;" vertex="1" parent="kNivtfIKxEV_QdEDt8PE-10">
          <mxGeometry width="60" height="40" as="geometry">
            <mxRectangle width="60" height="40" as="alternateBounds" />
          </mxGeometry>
        </mxCell>
        <mxCell id="kNivtfIKxEV_QdEDt8PE-12" value="" style="shape=partialRectangle;html=1;whiteSpace=wrap;connectable=0;strokeColor=inherit;overflow=hidden;fillColor=none;top=0;left=0;bottom=0;right=0;pointerEvents=1;fontSize=16;" vertex="1" parent="kNivtfIKxEV_QdEDt8PE-10">
          <mxGeometry x="60" width="60" height="40" as="geometry">
            <mxRectangle width="60" height="40" as="alternateBounds" />
          </mxGeometry>
        </mxCell>
        <mxCell id="kNivtfIKxEV_QdEDt8PE-13" value="" style="shape=partialRectangle;html=1;whiteSpace=wrap;connectable=0;strokeColor=inherit;overflow=hidden;fillColor=none;top=0;left=0;bottom=0;right=0;pointerEvents=1;fontSize=16;" vertex="1" parent="kNivtfIKxEV_QdEDt8PE-10">
          <mxGeometry x="120" width="60" height="40" as="geometry">
            <mxRectangle width="60" height="40" as="alternateBounds" />
          </mxGeometry>
        </mxCell>
        <mxCell id="kNivtfIKxEV_QdEDt8PE-14" value="Text" style="text;strokeColor=none;fillColor=none;html=1;align=center;verticalAlign=middle;whiteSpace=wrap;rounded=0;fontSize=16;" vertex="1" parent="1">
          <mxGeometry x="510" y="1050" width="60" height="30" as="geometry" />
        </mxCell>
        <mxCell id="kNivtfIKxEV_QdEDt8PE-15" value="" style="rounded=0;whiteSpace=wrap;html=1;fontSize=16;" vertex="1" parent="1">
          <mxGeometry x="460" y="1030" width="160" height="80" as="geometry" />
        </mxCell>
        <mxCell id="kNivtfIKxEV_QdEDt8PE-16" value="" style="shape=stencil(rVnZThxBDPyafbXa7T6fSfIfSEBYhQACcv19PFr1ZLtmp0KkvC2D3e2zXJ452NXr/fXz7SGG17eXpy+3P443b/cH+3CI8fh4f/tyfPNfB/t4sKu7p5fbzy9P3x5vTn8/Xy+Sy6+vT9+XE36e9FKWbItWDL9OT4K004NPJ/mH4+O5fJPQJ3kT0335nKXGSb5ISfvyRUVn+Sa1Efkq2iZ59RP6vkI1iaBgUipR6BLzrFAkxX2FliTBDV0SiWlr0uukEKO0sK/Qo2RQ4FHtWWz2wYJUkrZeJZVZwY8gUeruw3xDClKYD11amhU8rCRxGoKEMGnkOAK3d4XOtZq7VJII9zrMzVCK5EIUbPg4FJbyIiZ5qsFrLy+WiOaVAP2QaarrJtU9jBa83EFF+mxST/SGXLFcPW5GUp28g+ZiWqqF3JBUDBQ8SqQ2LKHCWbVc1HBYwTD5FcQmxznNGycyqVdPdcEwsWLSPOp/VcjSSDFpHBavCl6PtIUkQeZUAvGhSZrLu1WaOO8WneWTRGJQkjrb493QCdobptmrPbCkjdvXfvbzSbeppDnHJdHZENB+B5hMACbg7MmJdr/X8BzPHCgKbxDSMTWTLggIkInDl0qb7fGpkGn8cey4v6QFvMcKyiuRT9iTZgMuL0OXREX5SvwtEg3tCSRfFcmLy2diTx3ROItnJPFsomB/GU/eKb9OuD17Gso3RqZEZwCyJoWcX3AQWB8n7OUrobxRPNG6kSfnG5JHl2f5jaP7zvxlVFBxeHs82WhVyUCuCx1KKnXud68fxt7jJl+ZT8kxf87q2cj5tsEHk86YgbRN/1Yyj/I47Z3nl835bj/tx9xQns2jhnxxiT/vR7CnUG7m03ZbP/9Rvgw6vOK/0vni8Qf5Qkl+Rnzz+cXwfJNfn4+RbX/IBzInlo5XwO9teLSXX+APnPN1xCtfB2j/hgGXq0KTyAAl4g2+ICiJkGaELF9BIqNAbeyqK0eMlCMuoAsKDirEJI9qmbus+xQjVWQJaZMrsLL21bN1VGDUOzUkfu4DBaJN5/jSxPJQMlIDp96M+tWIa5knjoW1bhbqZoO+Xy7uPGbXWnx1HHFZoW/oulIFr5wG/ebLK3vtsG6eZ4TaiNOeJmA4ed3T3nlDqpSCLCsVKCjFbHfaYEhV2kC+n+PUMTqVvRCgpx14Ektcxr0s8o5rKmXuBx/tlDgWnDzLrkOc9soBqq+Vv6ZwUJlvWPZlxh0bki81Sq6XypkzvbxKZK8pGip0mjdfrrAdBuzsvQZJQKfo9uTyAeg1fy8TkB5Fug0t8gHk2bDawrDSbTrpJgF8+9Ptu2sGqSliCYXBH/bk4e1eoNtWMhzO/B3UUg8N5Vk801jmz+xh8cxYD4F2zD9/C/irvP/48+Hh7vjwcPpucf5//FDhj04fOezjbw==);lineShape=1;fontSize=16;" vertex="1" parent="1">
          <mxGeometry x="729.6694908395223" y="1013.0139204744605" width="67.01286815503227" height="77.82703267130728" as="geometry" />
        </mxCell>
        <mxCell id="kNivtfIKxEV_QdEDt8PE-17" value="" style="shape=stencil(nVrZchs5DPwavaJIgudzjv9IVZy1ar12ynH2+PsFS8vRsDlqeVOVB1kBRyTQaDTAOemHH49fvj+cgvvx9vry+8Nf569vjyf9eArh/Pz48Hp+s08n/XTSD99eXh9+e335+fz18vf3L92yf/rj5c/+hL8v67zE0hcF98/li1il/2n/Pl/sn87Ps32b7JN9E5l9BnuV2m7bBwl+ts/S6m17FZ8m++ykltv2UXKc7ZMksv8sZbYvToretm+SZ3+WLJ6c16vk+QDV0x/wFT1azUOJeDQOh48FzY/fPHZpEJ/nBUki2VJ0orCgSCMgik0cLKgUFWl73m5BIgtyHqjcbSmQQ5coHhZE6tZqOIvo1ka2ZGH6z4lb4OwMDEob0rYFccT+eIHilmyTmSSDxbXN4DO0MmiYExUWBEnsFyrmc66iBBq2ABNUKZZsQXEzYzSJji7Q+RdSlEIoxg6dZrQmN1jneEGWUGdSTdxLEVk1enEMGgtNah6bPAaf+WQ+g2U543lDK0Q6VHHErTUMnt4WWODIlkoTnc8QzK2eLEiYQD5TXipWmuYzGNs6cuhcJM5n8I7GwbAJ0Cgjksc81qQAlEQJMKz4ufnIShkgWVBnIAVRYh83Ft0OLIkR91JLPA2ZwdhXtCf+1DIY8WqfCehUR7G/npdRqjoJkAbSiH0v/0AuUph6UfS/JQ2J7xXxO8AV4lBvVWwmL4N0IuTljdvmymlJw1zkw0DAtmDjjuMFDgVJF3FUIgEmukIhZ66YA5ZknhGLeMBEG1x2Q+KleT/qadJkfL6hUImEtCI7Y0jTqA837AtwOz9vwhzWSpVLwhwz/caKvtnP+4+BSqm0FDO983y053hIGK+YabwSZkAsUgmprPZVPLXPHu2Vxjc6tM8kX9L49Z09IyHL+KWlq2Q/Jj6W/VeCtyiuLfth/YTUxZ9MqygqwO5PVgSwBkeuVHSUlB0eCrWHFtDsmexQFEJmH1iRHKfb2bOisbSw3Z4V7dGWvPP56WA/bP9bA/1O/ySsF3f8n7ANuhNfe/6Ch0D5AURfxyflq7DkC8N/HNn37vxCfr6Xv37JR8ZvivXoDv/oEq9K+VZHr/NO/vz/9jiy4m3A+vw4MvrWeSFeSmcNOth4Vx/ZyGf1v6MSLi49gMWX4i3MfGv6gTUxEfFv+sRTPqmgT5TaJ9TEpq94PW2g9yodrGSpYJ9pfI09oO+MoxO9oVehvlyHmseC2NpOUNA84fsMcEaoT3SIaRI+QGMbKCRMwocZc00aObIpeNBkhULaPO6gxo+gHNs31FiB7scQBhrU057EEA8zHjcecLNPLWBPS2rCAaajJckYreF+IisxYUykrudV1gJk1ASBltTslppHKTRHnAZl2pfnZcbWKH5KGGOQHaADyeGSUURbymRCotWNseO+rWXzLKNdcKnSyWUtOGLrwyDGKw4bB+XE0hQPrZkyb1tbGUe91EedoOUS58atFG0LGiXr1hCpffrKJh5uS639gJftqWEBMfg6vgDYzvCb+KmhhTAAM4lmfoXbhVLo4KxfPsDs31MR2+905gyqiVKkwRVKQp8REw6ofrlSCfRqrkQUXi1TlswZldd1Vn9MewVbLQslA1PnYaANx5lbFzDZnhqpzbrckDY+nuj6LqBf2RDZF3STxZJd8/iAHUUNnMpQYfdrITqBgmpSuMLTpZqkcXN1fACcIGQ+dnZDbm2MUeiFjcOONylFtsPqn7gcWRisd6Qk1dyipkyz8v0sEwc21nY4ge0TMepPuKnpHTu1xw6t0A7THUw0mLxwy0Tpnv06AWH78fhSwZ0JhccO586EcZsv7+NF8nG5x4r8WuEXXuq4Y28frm+QfDs/PV1eQNn/P75xYl9d3lbRT/8C);lineShape=1;fontSize=16;" vertex="1" parent="1">
          <mxGeometry x="682.1850084060272" y="961.1740340760693" width="191.87424780624133" height="224.01312263850537" as="geometry" />
        </mxCell>
        <mxCell id="kNivtfIKxEV_QdEDt8PE-18" value="" style="shape=stencil(rVjbbtswDP0avxK6ktJz1/1HgaZLsKwp0nSXvx8NQ25ERycYsDfXPScSycObp/jwvn96203BvV/Op++7X4fny36KX6YQDq/73flw0acpPk7x4eV03n07nz5en5e/355m5Pz04/Rz/oXfC88LhTqzgvuzvImUlxdfF/zx8HqNT5Rih/eekgcET5x6QqXoAMGRLx0hJKrgSoVSj4+eBBzAVA2+UM1jfKbCHT4xSUD43ONzam8G9/HS4TmQB3hpAVrx6lAZ4yuV3l7J0F4fqPYRK2sMbxPUo70mCreY3CQETyV0hOqgJtRmzj0hkAAfRZWpOSGRA1dK6nNvCRGpQm/ch6Fq5kRAKFTMCeoGpFNuYVrdWikAGyRRYBsHB04oakN/paJuANIumVwfaSkUEEGT0/WERAwCp04MJhsyRXCCEmpvA2vsgVo1rkZ8HGEcqqaLs4SEbBByaUMAWqqFfLQEASWv1s0Jq+BHBK7WrQHVeeeadFYGN7WMjjBlg4UiclOlbAJRYMqpm6SvZFr5PCJIC+wVAbWGyhs31VbbRtrI2RIKCoT2Am8JESS16puL9dKdDPKbOAiyIdg6w6sbhicYuWbYIGYb+sKkchWkJVWziUNsXXsYh00GoWo8R5otAWaQbMQXsdGldagroz2yoW6kkbDR1fZdjUMF0riV1FqrcN0QQyitBfwnAtsepB0i44JvbNAexGD+0R5kBjjtcgm1xdgayPU8A+QqbGdcnWeQDeoT6SM3jyfAS6xDcW+0+q0A9WW/IagbQFInT7WvxldquT1jaSB6v87BB+V4nuOjvRM6QZcTydZNDPyqo6vbjEyCRiY7V2rsUQYlu2uITuNocLW1WFybb27i3abYh9ZgBniTC3ndzwZ4s1vpLoPGYm/xUeDuEGz/jA5mTrJl+876yXasnyWCWhU5M3O3IXy4rPZ436bLEb5aPJqRVJ+x15uD159XsWDwaFjw6r1i8B7dJ9ntH6e8z9afriXcCM/29wPCc1sDP/GM7sN2p/LkQHqpWoye72y2Ype8ANNX8Uaf6y49wv/b15e7eH34/NTzcjgely9F1/+3n4b01fJZKT7+BQ==);lineShape=1;fontSize=16;" vertex="1" parent="1">
          <mxGeometry x="722.9937370390944" y="1064.3901842685957" width="54.03526150108746" height="58.54996279732836" as="geometry" />
        </mxCell>
        <mxCell id="kNivtfIKxEV_QdEDt8PE-19" value="" style="shape=stencil(rVhbbttADDyNfwnucp/faXqPAHEao2kcJOnr9qXqrixS1hgB+idb5IqPITncndy8Pd697HeR395fj1/3Pw/37487+bSL8fD8uH89vOvTTm53cvNwfN1/eT1+f74//X65mySnp2/HH9MJv056Qkkmpci/T3+UTKn//efzSf7p8LyQr9STka+BCpAPmUK2CoV62FaIgcQqNCZBCp1CtQqJQtpWkEZifW6NGHwhNQpsFHqgKNsKuVK1UepCOW4rlELFOt0zcQFpSD5vqtCADxrEzisFBgr6uliFRK0BhT6As3BagNM9Uks+DyhKasC/8xbQKMAkVcjWpKroxgqx2XLoVAG81cVkfSia6QydZovWrPUAMt3Zm5SZUgV5ULRaaKQ0AL+V6WrDqhWSETSE2JokQhH4oGkKwSjERglEaeoR9gsxjSq/rCBULVqjQgMpaFOxiQuVCi5RV9MhUUcK0fsQIhUQpdyoW7QGpgailNNAzlxxJMDnHEabm+tn9NrLfa9SsMCosNzSqhgqRXC+VJLi5FHDEB7une1PAKdTOOJH5NtaHs0FNTc17y+IfyzUbIILjI++LrZn61C4Im+niMCZoOay7RRxHLAlXy1+AlUcT2d/wPZ3KtYepgrwJnOJn+URtZDgzw+UEN7igMs5Pii/Ku/yKwPgl+XFz4J5Xm2d32388cyf7Ld4xtRrio+vxyvxr6t+guuxrOoX4UHx4wgCBRCfuKJdFc7iCf/Zxaegeik+PsomQH5V3tEPpRcAb1N/sPFRgCD5OsJ3xnNH8WmeSmAaq/ly8jqP/qO8JM8jeAycy/OFPcNkYoA35T2OdjCcL8rz2fcfNOFzHHBf9EMQf2V6xfEmSPJLGOk/46eC/qOrW7b+ar2D+Cu3LY6xj4a9RbIcnpXRVFAwtY7NbVYosIMqUWyu4zKkKLrqsTUp4sWp1cFU5xzMTHCLf7NtKlIgK1CGn11XjxDWunS4tq5ARH2oa1pt3ecMG2lfDWIlpxl9ofvOq1gRMAoCz6W4WLUQ+Hr3NrUwNs5NJ9y0qXDrmMJky0fX9oZSnTxcdUcuyIeZn8wKDaa6FX/1oGFIwKSpIPxOgJteTf7CRT+Bpr4uNmuFgNaO1djsFfKWaY9Y3W5EdENTxwXOInNoSdZJ2Bw2GmwDoY/JtLg0iiBKQTdcB1eG2Mh+C9fEoOVpNduKLuEgRjyoxEKe4fme62jSQIRW9azyqO3xiPcsX2BP4kE9FhePqF/wuJJYXlRCf1v28gEleAymWT7B5VtHvXj5isiax89Vecc1J3vQMuG51OQvOP+jF7/X5fXhfMv8cHh6Ol1SL9/7W2n963SjLbd/AA==);lineShape=1;fontSize=16;" vertex="1" parent="1">
          <mxGeometry x="784.5849273714887" y="1029.8188106391121" width="72.29138895172264" height="61.14959771163876" as="geometry" />
        </mxCell>
        <mxCell id="kNivtfIKxEV_QdEDt8PE-20" value="" style="shape=stencil(lVhdcxoxDPw1vGpsy7as5zT9H5kJKUwpZAj9+vfVlTFgHbdM3uDQ3km7krzHip8+Ni/v61UKH6fj4fv69/b1tFnxl1VK2/1mfdye7NOKn1f89HY4rr8dDz/3r+fv7y9T5PTpx+HXdIc/ZxyTpgmUwt/zhVYoyP8rX8/xu+3+Jj4yFR4BSrkBgJKWAaCRInhCqqQyAhLlsAzgTFE9QPMyIEeqwQMkAkAjUV9D5WVAKZR1xlJZBtRIpY2ASgk8oQpFJ1wk1WWARC+cVBLAkhSKI0sSYA3SqIwpVaYIarCMax0AxlsAKbVMPNKaayf6PqBSywOAhRqooTVqYw1JqYLW0EA8dmtKFBAg9t7sgJgpI4BN3DhATAxIsniNY0YUAEeaqYwqRAqAIrXeHgswCoDKahJVFx/AOKtQiT4e5d/6/rnGQ8WUkrh60QKzeDf8iWoCCy9c6rsKpgBgD2hjQgWOvsXnkSBjGN2/UR3vL71nlwSQ7OIVxdseGettFCtsIDf2gvnJ83wSEixTYMcPo4bj3i9X/mHDsW9QJkH52M/jACe4tCx/Hu8fsV6lb9nrABQ8kHE2YEgv6XLexON+i+LiGdWrXi8zCGgB2Ub2fCY8X85Q8KOBd44lU0P989l4O4Lcwq19pS4KNg7AtFEedJCrOJIgiY1BV0KgBABmZ2SsISsUzU5idWd968+8D2C/JWqFrk7Un3uS+5Ulg+PmuKXuJO8DrO+dSWuw88z/yNjZRnRDvrH61jDtkQ75YisvgNbtwpL3dcJN5xty1zzr1oAPcFu3bv6nEwsoF9uMptaZvg+YF1HhSrpYshsdkDO1hevuH3uKd+MDtejj0REYvI81G4kYCn5jN+xKZw7EGlUAP5cD4BIvsE9tObjXmwotgjmy+dsN8lCUXP6lv7ItxDvXbvGI/zSbfLwquGd7E99Ag372rfpxvH24vsK/bXe78z8At7/7V367dP67gJ//AQ==);lineShape=1;fontSize=16;" vertex="1" parent="1">
          <mxGeometry x="760.2901559313325" y="1081.3580984381745" width="57.68812227668968" height="45.87333381617964" as="geometry" />
        </mxCell>
        <mxCell id="kNivtfIKxEV_QdEDt8PE-21" value="" style="shape=stencil(lVjJbhsxDP0aXwlSO89p+h8B4tRG3Thw3O3vy6mhqcWZeUVus5CU+Pi4SLv48H54etvvAr9fL+ev+5/H5+thFz/tQji+HvaX49WedvFxFx9ezpf9l8v5++vz7f3taZKcnr6df0wWft30VEnTpBX49+1LodT+fvh8kz8dX+/lKxUe5EMgjkAhUwuDQgyUKlCIFOKgkAIpWKEptdGFHCmDFZptSUefI5UCFIRSHhRqoApQqgaiDAqNqWWgYL/LqGBAh22FkjvqXUFDB3pVITeqo9NqmwROG4g8Bk5nE6sKqVJyK8zkWlcw5tRBQZiJeVsjFiril2ABCkIhea8ziNxE/wWuiH1GfxlhssgpCIQ0iiOZjF4o1JI9TDVB9knomMz8NjKhHKXg5JkCIh+1UT4HzAyfoKkQg2zg/neuMYkisG/yY/JMNQkAxJRH+2JEBbSTXhJn+dZDss4JqqO/UmDAksff5AXYz1Sjl49g/5XE7adC+61bu/O3oJLd0Z7xZyogvkpp0UMQ/uo7giEQgHzrKT7LVwqAP5Wys99IQWm06Iz2I8MemKgs5BGf45p9UOXE59e0f5C/7FvBhA8o1ExSPP4C5XkRX9T9DA2HP/cpY8NfV3InfgJ/Q4/+Pf/B/iPVRT4i/mTPT5kZssGfol6+wfzV7P0VwIdGzfVV7RY28st1pKmpAXw+Ki9CdSRQtJYAEkYS6RgB6xgNZKQBqCOkNr6gOdYQyW7utZ6HanrwThfbEpokqs/6WuFYGqMfS1vqa27NT453Dff5bImjXiGhobEsVsi9t60zW/z41KyYAWobiGmMQ1VYS6v4ONTYh+11heW0jwdf24DnkjVEgJK56CKdsA+t9HI454P2yGwdcXyFVKqoIy8iPRVxNAKGTubZB9ii7JQmzgVcMuLi3IiPjalPoHMNgyXP5HWsedyJtXksZSfPgBR2bCjePjqp2Dk5BycfUAlezFwMW4LJq5tJ8Yhv9U4c/nCk0wVFe1NZr6e8aPoZzpgfvnj4r7w9/LvleDmeTrdLkvv//lbEPt1uVOLjHw==);lineShape=1;fontSize=16;" vertex="1" parent="1">
          <mxGeometry x="777.2986055359052" y="1132.1286040228083" width="52.17534515522675" height="34.436892843561964" as="geometry" />
        </mxCell>
        <mxCell id="kNivtfIKxEV_QdEDt8PE-22" value="" style="shape=stencil(7VjLbhsxDPwaXwmJep/T9D8CxGmMpnHguK+/72xdbS2uPa4D9FL05odmJQ5nSK5W4eb18e5lvVL3ut9tP66/bu73j6vwbqW6eX5c7zZ7fFqF21W4edju1h9228/P94fvL3fTyunTp+2X6QnfDrgszU8gdd8PPzhx7ucP7w/LnzbPR8t9kBbN+tzOr9cocXx+khrOrw8qYXy+r+ITARRJ4wYh9C1PA5rkNACiipIdohdvQlBxlQJqGwDZSyakAmBILU4CiSE6UTcAKngmRwJLGgZAC1IZYKGLlsSTGEKSNgbdslQGiFLMkaooS1zof8+ARhMXvCRnATUTsTYp4w7ecTtosZnDFpltkUWbjboWaqBff8+AwncIUpJNhCe8AuAMTVGCEoBaBzW4lsWgiyM5iYxWpDqP+q49l+dSXQzASSFHinOIs+V81+NJwOT5MdM5SyYsZSd+TNxUBYjlcpUwxpCKBBJ0SVZ8KYoj0gCJ1VSyIIFUb0jNZRsDAxz5ZeY1SSK8Tn4xABR8dqYqcZHqRFIN+efRclUlksxB/nHMXA2SSKFpC20AUCNJxKIH1VnxpwGlH2AGeFo2KrQxxlBQ+0jQADgDKLQKoOO0sX6XKJlkGjukMQ8FvDEAepBRX6MtBfo2TQue8kwaXnSsArnQxouumctVAOShXnWkYmm9EDQMFNw1tAJgaL2QuDYr5w+lAYs2A+DiQ9Bm6pvkTWolaNWF45iBYNG6cByz6NSh1AJYEYD47EzGywzkHcdMXyhkMJCZHaZSSViCRc0geqEYvwVgqjf8UEn1htTS6Af0XUfygOeZqQ9HUkJrwhAXLa2e7IDObsZEEM3GmZisRSEW5of/w/S/NUyTVL9pmB6r8TRME1P//WFaF1WgRjoba1kM01kCA9Qu/7lsgDf2jlK6I49GXTZ9QxpmnImZNmpdzHBQPHOQX8Sgrr+EnAagzows+UjFl3o3mNcH+gIR7T0F1tOQ7TvTdEJSAnxnfF7v+6B8cr2zQvWOemd5qdF7xZnlxmm5l+Uzy715uxKlT89jn0IlIGf3NrcwMaFS+8A1U9PvZ04XX2kjk3A862j2zg1UkbNfeQV4cTk+/L5tfNg8PR0uK4//t7eT+OlwsxlufwA=);lineShape=1;fontSize=16;" vertex="1" parent="1">
          <mxGeometry x="832.627814942301" y="1103.0402062322476" width="34.8014038717331" height="31.571255180202343" as="geometry" />
        </mxCell>
        <mxCell id="kNivtfIKxEV_QdEDt8PE-23" value="" style="shape=stencil(7Z3L0tzGDYWfRlsW+969dpz3cJXlWBXFcsnO7e0DROb8w4PhRzm7VHnnC/GT3Q2ggYMDzLvyzS8/fvfz+3d5/+XXz5/++v6fH77/9cd35U/vcv7w04/vP3/41f7pXfn2Xfnmh0+f3//l86e///T9l3//+Tt/0v/pb5/+4X/hX1/k0tzKcqm8//vLfyl5q/O//+XPXwQ+fvjpWWBse1aBlUCgbWWcBcpWFwjULaezQD3e+Vogb3OpQKdPSlsrZ4G25QYC+1aSCqz9WmBtWb6ob61fPz+3tp+fH1uGUxjbkgVM3KIRvmfhGfRt9dPzNR2HcvH8mOfnM35/3/p5vdV0otDzVb6n3ny/6Fztv/N7xlZxP/vQ5yfsz9z60uc76k+V5yfq29ySPL+2Afo2jt0+nm/7lnh/mj4/4HvMOs5OoqXDgi6ez/I9edvhebPvrM/Tesvxfx/Pm5Op9PyS9bat4fens39o/UY/k/x9c6to7zXp879p4IU+DPn7Dw25cnB7ELhxoaJxJrBgR81J72cX0RaqXHpcK08CN2+oZyPu6XBLV2soZy3qeWuwq4/3P54vxysvTqGcta7XraCVjfOKe9sqrNi0Tr7fbhm4xsrWz0fQTYvg72f1un0ef+H1huq12tfWwSqTqsTYtwVamnW9Ix9+42K9EtuMcpz4lRc6n++ox4ourLKdjWa0w+6urEwim9G3CQrnNnC+ZwbfMxZsyRGPiSpt8Z94orG2nc7A1jBUgJTaTlmiMxOgu96OeU0VIGdtb5DbwwRwl5aGT3M/AqSrXarnT5qmu7CG1PXgZkYHbwfXzro3yxHDXEbJ8obKiy7qsWc//sRX+tM5Dgd15U/FY8+Ft7gJjPM5rB2Vzy+Rs0daCXXJFt3Ou7TMZYDLtnNIVQXwIgyhtQlM+qR1mPyzAHgNs4ce3oBuu71YNN3+flFV3dYG2lr244ufDo4WXYJNm2osUL63DO5Zl0igaUg+J550eWQET+pNAUl5hIDPbwDVsDXooifebyZQh24ruRlPjEU1EjoyF4jqTYFzVSew6t05ZFEN2ze4dEvIvRZfipbqFvEa4wjXXycLu8Z5y+IY2NYaPJ8JkIlaNtqCAOX7lo7WsIYBu2T5n2QYtksUG1oCGA+O7gfL6LL41nxkcVcCEq6atlKS6gJyx9m2gsWZQD3rkpnoDm+wRU95Q0NHVh8G+XSLUs5geXsUaGBxdtIzq8AkgccXP62B3H0NJjo7r6FoXO+OjJQvhzXYRtM55EP7n/0S2LQJjHBlFTLRqgjJKuiMHQDaVSCRiU7dJXeVpN7phTOmdKyVF7cooXgtuEo7uEQJ4tKMyVRjBwHLmPVSLOiMe7zYOenuj+vjKVgn/LiHS9FSmgrbakn5PO+SJU2UP/galgogGpbUHsZg+HJXPNLWQOfQ5uGrnwQWaGsbWxHV2Fk1ukYCdnAIcTVNXi2lWbDoVhVEM89H6bq9QfAS83zkNVpXN2PqnchEZwgSO0YCdtKa+PUjGr/S1hEEqLTQp167tmiCSkc6kNevNNFR1c3MhBZnyqy4ycJoxv63BCduQPSGFVL8elwAr5G0PXiNjAC0f7HgGjteu46TnAX62gocnC8xoGOUcIymutQHb2tRbTUBqs2ZasyiAoMWHbbV1lDJGU8NTnyX4MryLw7nUGHRvSs2Y6uiDOUNw3xC+QjysjWIXzLlI+/tqKQoX0OYwj+gqAAtevQDQnsSIFBtLE1p3MpBwHx1KrpLlIuar5aSz+ASiwed8kkJQzgPOoPFTdAlCzoF5+uP6vWVQA/2QH7J8xGxh8YI/1DIyy8A3iUJ4Uwg08G1I+N5EqAg0W6DHAVo0bEMUjH8cd8a3kBZlgc7obBBsbfZg5ioCZB6e/wlpZmBfsk+SVBpEyBAygFfWcNEm7ZzEL/UGXVw1cjhDXADmXqPcD/QxW4JzJBFd9zW1bTuaOdQqG491JH1gpeiIzGySw+U4LVAcAIW1BEgZQJaa23ol+yTJLVsjJGtEHs3jr1tW+WkHVYAbV3hQrF0Ft+QNPGrFTEy83z6horhj/kl8XwuwPZQwydNErA1CMmiIUYWL0UHX8jNBDCncj7tkbHwULj4Fd9gqkEnPZa6mRvmhEXGcnAmQNSVGcBNBy5IoKpvdfUmgf6CvTI4EhCvUQd/0goH1zDxc/jpvIZaDrdw5SoFzKl8Do5XBYoVVcveajIPgXm4hdcCu2YoZWAC7hWTpm+gXZpD0Z8ymWbS9OBs0QT2mxNosq07EmVMW3M4h0ZrKJpa2hs6OzIpQtoaEm3rCGS9jtiMV33OfqlUxCr9YheBhNXjuRSQyoN9a7gUc8VM0RYtIELObKIBX0psD45inH1rGsj3sftBUsvEhaMR0NDELC3z3pIep4665Fnb0jWQxVnWlsKiyeIsa5OILDF2bwKS+KXJwXrRGyhx3DoC/TZNLFiMAPYn9nzjEX89r4Eu9lB/SBysj6zYTHrUxC8FwrZSjX2Ea9cEqLbrAnIOg9U76z2duKbou7SrAKpGVvTHBG62tQd7IFbLCCWR1DBuNQNSi3vUC64E5BZNTPobgY7ubHA2IPkkTlActTubQzuqmK/xq6W6WhDZ7KHWnBFV7zk4YkQonPgpWoHr9UKCqB1av4WnkiJyOmbBZjmfMAMmXnCVBBHLdhY5KrSMtZyaDzTlTR/IaCzAETtmFqUHRHJenGOYgODKKSGeWQNPy6mzVP99JUBxoX/SVAFKGWoKroiLGjVGC5mPLWnkaQIEHtaQc98J7Npl4Z9Ei94V30+JuQT7i3OgIMxj5aUCFCLVQAJJN5X+PVz+7C580XLSTDOpD2rmkwDFtn7SexAgD5AUBnABYlw8tP9JgO7yGnxeYsJpTa/O4UYgvIHQxhrqjilhqFqTolyurTeOTN5w0wWSlLfoFseqIZBSyghl1ID6vlFQL7U1qDdlMf+LQAnaSvlq3UNJ+vZ6kGIU84+K5pKdvyfQ7Ll6EKlvhVkySYk7N/FFaN7ZMbloSzsgdySl9aL+aMeMzeI1tcyDInAVDy6N70iBPIoXiJHj06pA1cD4aAQK9Y2CjsB9NyOjPpMRWkotSyCrdHaB2AwXPkZ5kdPutOg/0uzfBP5Is/8P0uzAeLvDqaI9dCRDjtDRaQLoZUaI2ho2XnhTUFYBLJfGEKnhSc+qcHjiTM8ruMGmEcKc6vkyB2EztCBmboReu9I4HBlmAe2N5xYbJ1lIlaEifuGcVXnDTfN0V4qchTREH5gBFLKYhvj7M2ue5JRnxp4F3a4cF86kwFbd8RZ1Gods62LVaNpNWSYXAkcoDw0urUzNV0vHXTJd0jpGR7L8W3PW0yeR915FG8Js0ZR+Oks867ZS8SZyJm50aSWFzyxApt6oWNerPFzCWUryhptCYFfv7eMBSKCqPVhQTTGrGZBiaJkF9lckC+ZnCmjVmI7vpO+ha0A2QNck3ftP6J7uSi+zVIVO2j5J3mAHh1zfAK3WhrmbbasQp2rF4MS7TIXGUZiEF3kf3FRt2tqDPSD/JmkIZwJEzTKb1mklDTOm1cO4DCb8r6EMUDMgdGRLvbdpKwW6a+kaHCbHiQ27EgPbRAKOvUKOujNB01cdmYQk0HTMRuexK+6+5Q03Nd8VaHvrrgytHOqFYaXT9nYVIKM2kxNvbAJITZ/antsXtgj4kAD5pImtGj6GIBADCa93AWHhNcYQugaupho3rk8/qd61CEgVx4dtMEFT6cQFtfUFUTZzHPrgGD0JYNdCD3TizKTrqRw5W0NjexDn6lRcsAcLNiQ07o05o6EH07sWmLwiPZidJ0rYokX5xo4Frzn0HAZXNC2ckazJ8lk8uKwtxs74J3tYilOYAN1ZZkByyblJcQYusMO4ycB3dcbjthMpdi2Q8vWg3t5IAcpnAhKtj4zBhgkIPWYkxOt7JI4vxLy8ZyewtHFGzwrufmDLzAi1UAd4ue1HwMrOrd7uvYMA4nYjdPHcsOUDXazfEAN3LZ6aOiIxMJRBHL4kzxcKj6MhqW4s3aWbWTpj6El70kK7FIgN5kcQSkwvOiSRyjHVzczO2lp1W+fAINEbHoMAXewtjC6c3HPWunpv9+fEF6maNdlFTLtkAuJmZkVwpoXxDU47pc7t0MpnqkHgvS1aKveDSaa2rXo/DGYF7YpImbunc+hJQwcToHipl+CMGzoy79wO467opL0rKIy7ws7tpgitBdc33efiNSbDcD10XrxBHVfbqtXWilhLW5oOTKYTt6FJ01x4KbZQwLMUG+0h8Bt89AGV+kMXj2V25Ft9GoPMP6lMiqp6T5sA0fZ8okTWT6LYu4bm2ZV5JEvgaKzEdIWsheO3jsbLNYQRRcjRCPRJd5W0hha4aRXD0BomgXrCTG+YatMOOfHgGrU41qW2vxiYQo6shWaQya7SBHQ4G49jbWFswErYBtcCFWxxtluXIlLrdtKNbOviGqGdtMRLa6K7r1V7O9ZirxGyrCdQ67XErrGDvYL8fRma+ZkAdVKUrs51MSL1YkBWx3ygFL2zFk8QKqECcTOIpgSmwNoRWy9F+RSTU/ZStVg7OZYur8Zi4MC49mK0Bw5b62F4CIczPmE7rAEPLqS73rdGg8p6mL6zkLzgA+PiPESazlbCNcpXUAl1SxMgT5ZDM+ziOk0OE0gX+/ucdVbx4nqZD1AMBkRQoo9ozEGAZ2uqN64I//hszbBoih1S4Pz7NCqaSxkPLvMa9nAO+1FMuhIQnMLb0GjRKaRZXHBOgVg4uc0zBX6R3ez40wFhwrG3A9IbwnQFh/5oW0Nvq5fcaJdmwLwWDwleeo0Orip6u8WuAhkWnXOYl8v14xyK5oOHJeQQrQ+e9JeLtki+Tfy5EpDWPAdnwAnkYHGe+ZHn28O8XJ5c80Y0exJAEw0DRcfNvOzgKgdTeQMz1CdxEGasAJYP4sAx/DqljDv0wxxB78Yi4wkwfMFDjmPWMgYNoYTqo37w+TixhoiqexgYP28Goq+ALdPfL9qa1jsWN8NMn5sB8yFL92E1VKnU9NNLcFT/1fPqCbv9/FILAqTQfs/KDnGnhveWFBVAgp0GtvY8DRaYYZjC4hFdYR7EwguqKQWxseet2kJhz2eKUQOrhkljgfzqv4xBN8GraS00HVvJ5v7LHvg9uv8FwbOs+tA47gp4Ybvph9Kbsu035ysY0htecvG8csVuEFItxtbJ5P0Xo2woOQ2/N1UZ4g3RUO2YsJgBqwDzuZfGmL6hNGtB22/q4pqNxh114fe0MIiHsaYwZbNyOSU+z3WzpoFWrejgAvG7Fh51qiWtmm72R1DXt47CrzOAsjBGCSXnMrFlsit8X25mLqrDKqzQgYRVOjONlX5ReJ5oiBF99D7FKElz3fufZ9O5NYwIWBYnCX5hJD5F6jPHfSl4ucL9ySn2oN38AEgYblhuIpUwA6nwWKY0NXso3MX91l/0JIA/CjVfjKEhmkCaGgyVxD8mODUhKDzs86UAlUX9k8LvG+JvksRF3wAtcVszGpwfXHgDZTW//zca7wXsH95+EvKHDx8/fvlFyef/rz8haf/py89Plm//Aw==);lineShape=1;fontSize=16;" vertex="1" parent="1">
          <mxGeometry x="617.2999789771573" y="1024.1990288478573" width="315.0338809100715" height="239.98303861734303" as="geometry" />
        </mxCell>
        <mxCell id="kNivtfIKxEV_QdEDt8PE-24" value="" style="rhombus;whiteSpace=wrap;html=1;fontSize=16;" vertex="1" parent="1">
          <mxGeometry x="500" y="1030" width="80" height="80" as="geometry" />
        </mxCell>
      </root>
    </mxGraphModel>
  </diagram>
</mxfile>
